:SAMPLES-PER-SECOND 30
:FULLY-SPECIFIED
:DEGREES
419
root  56.0946 37.7332 0.121804 -164.769 -85.9658 -170.51
RightUpLeg  -54.0406 -16.2147 11.8519
RightLeg  26.8849 -2.99456 -1.87275
RightFoot  1.43934 0.662397 -5.81577
RightToes  2.32829e-010 0 -3.6325e-017
Spine  61.1626 -5.86073 9.56383
Spine1  6.74209 1.70336 -7.79354
HEad  -37.2364 -4.25565 -3.54735
LeftShoulder1  11.1947 -26.2422 -31.3891
LeftArm  -39.9471 -56.9564 1.0309
LeftForeArm  -9.15389 -9.78199 -5.86259
LeftHand  -0.244104 0.0205437 5.32207
RightShoulder  5.53079 15.0775 23.5462
RightArm  -43.7386 58.3466 -4.02933
RightForeArm  -17.1118 7.51623 7.63676
RightHand  0.984549 6.26329 9.42507
LeftUpLeg  -57.36 24.2125 -23.9595
LeftLeg  19.8608 -5.82705 -1.91454
LeftFoot  5.70419 -1.57223 10.2292
LeftToes  1.42787e-010 7.94111e-011 2.6399e-011
420
root  56.0246 37.42 -0.145862 -159.848 -86.7683 -173.645
RightUpLeg  -57.4153 -16.2144 12.7466
RightLeg  29.473 -2.70352 -1.89183
RightFoot  0.521303 0.655191 -6.26634
RightToes  2.32829e-010 0 -3.6325e-017
Spine  63.8099 -5.57632 8.91113
Spine1  5.30037 1.54085 -6.92493
HEad  -38.5398 -4.3353 -3.29636
LeftShoulder1  11.1951 -26.7302 -30.7688
LeftArm  -46.0168 -58.2619 6.62936
LeftForeArm  -9.55273 -10.544 -5.15625
LeftHand  -0.244104 0.0205437 5.32207
RightShoulder  5.34899 15.2528 22.2223
RightArm  -49.8581 59.0413 -9.34206
RightForeArm  -16.5503 7.96537 6.91266
RightHand  1.15703 7.02519 10.4062
LeftUpLeg  -60.2222 22.2788 -23.6476
LeftLeg  22.6028 -4.9279 -1.92041
LeftFoot  4.84834 -1.5032 10.3303
LeftToes  1.42787e-010 7.94111e-011 2.6399e-011
421
root  55.9192 37.1184 -0.406769 -157.954 -87.7109 -173.949
RightUpLeg  -60.4434 -16.281 13.8133
RightLeg  32.1559 -2.88286 -2.20776
RightFoot  -0.668045 0.665747 -7.16241
RightToes  2.32829e-010 0 -3.6325e-017
Spine  66.443 -5.6356 8.80741
Spine1  3.47356 1.44736 -6.74091
HEad  -39.3226 -4.49928 -2.44514
LeftShoulder1  11.0331 -27.2527 -29.5834
LeftArm  -51.504 -59.0766 11.2299
LeftForeArm  -10.1129 -11.3753 -4.45765
LeftHand  -0.244104 0.0205437 5.32207
RightShoulder  5.21952 15.278 21.4485
RightArm  -54.6847 58.8581 -14.1324
RightForeArm  -16.7854 9.03662 6.48541
RightHand  1.26807 7.50657 10.9793
LeftUpLeg  -62.8564 20.5595 -23.1665
LeftLeg  25.2613 -4.21055 -1.8285
LeftFoot  3.93588 -1.43246 10.4709
LeftToes  1.42787e-010 7.94111e-011 2.6399e-011
422
root  55.792 36.862 -0.622842 178.809 -88.6466 -149.829
RightUpLeg  -62.3502 -16.4119 15.0281
RightLeg  34.552 -3.66562 -2.97125
RightFoot  -2.2283 0.588844 -7.55086
RightToes  2.32829e-010 0 -3.6325e-017
Spine  69.309 -6.10034 9.27932
Spine1  1.57656 1.44733 -6.92915
HEad  -39.9161 -4.59031 -1.60825
LeftShoulder1  10.7425 -27.6688 -28.132
LeftArm  -56.4626 -59.4265 15.1798
LeftForeArm  -10.9803 -12.3753 -3.84332
LeftHand  -0.244104 0.0205437 5.32207
RightShoulder  5.04712 15.1351 20.6895
RightArm  -58.6562 58.4141 -18.2622
RightForeArm  -17.001 10.0914 6.1317
RightHand  1.40341 8.03348 11.6758
LeftUpLeg  -64.8235 19.3055 -22.0059
LeftLeg  27.9121 -3.51968 -1.68158
LeftFoot  2.96018 -1.36668 10.7165
LeftToes  1.42787e-010 7.94111e-011 2.6399e-011
423
root  55.6484 36.644 -0.80297 123.322 -88.7907 -93.9584
RightUpLeg  -63.4112 -16.5085 16.1503
RightLeg  36.4351 -4.18653 -3.58038
RightFoot  -3.65547 0.468279 -7.3193
RightToes  2.32829e-010 0 -3.6325e-017
Spine  72.1999 -6.48726 9.7239
Spine1  -0.0162777 1.50045 -6.77205
HEad  -40.4564 -4.56948 -1.18935
LeftShoulder1  10.4988 -28.0134 -26.9407
LeftArm  -61.3292 -59.2386 18.9989
LeftForeArm  -11.5894 -13.6388 -3.32469
LeftHand  -0.244104 0.0205437 5.32207
RightShoulder  4.81102 14.9611 19.5962
RightArm  -62.2885 57.9198 -21.6974
RightForeArm  -16.6807 10.9367 5.71191
RightHand  1.59251 8.66926 12.6603
LeftUpLeg  -66.3463 18.7576 -20.937
LeftLeg  30.3736 -3.23956 -1.70699
LeftFoot  2.01982 -1.30365 10.9882
LeftToes  1.42787e-010 7.94111e-011 2.6399e-011
